<svg width="374" height="100" viewBox="0 0 374 100" fill="none" xmlns="http://www.w3.org/2000/svg">
<path fill-rule="evenodd" clip-rule="evenodd" d="M-1 26.7612L14.625 30.83C30.25 34.8988 61.5 43.0365 92.75 41.0021C124 38.9677 155.25 26.7612 186.5 16.5891C217.75 6.41707 249 -1.72058 280.25 0.313831C311.5 2.34824 342.75 14.5547 358.375 20.6579L374 26.7612V100H358.375C342.75 100 311.5 100 280.25 100C249 100 217.75 100 186.5 100C155.25 100 124 100 92.75 100C61.5 100 30.25 100 14.625 100H-1V26.7612Z" fill="#38CF8C"/>
</svg>
