<svg width="109" height="45" viewBox="0 0 109 45" fill="none" xmlns="http://www.w3.org/2000/svg">
<g filter="url(#filter0_d_473_115)">
<path fill-rule="evenodd" clip-rule="evenodd" d="M12 0C7.58172 0 4 3.58172 4 8V29C4 33.4183 7.58172 37 12 37H97C101.418 37 105 33.4183 105 29V8C105 3.58172 101.418 0 97 0H12ZM37.1406 15.4609L40.4297 25H42.0859L45.5 15.4766H45.5625C45.5521 15.6953 45.5365 15.987 45.5156 16.3516C45.5 16.7161 45.4844 17.1016 45.4688 17.5078C45.4583 17.9141 45.4531 18.2917 45.4531 18.6406V25H47.2422V13.5781H44.6172L41.3438 22.6953H41.2969L38.1328 13.5781H35.5V25H37.2031V18.7344C37.2031 18.349 37.1953 17.9453 37.1797 17.5234C37.1641 17.1016 37.1458 16.7057 37.125 16.3359C37.1042 15.9661 37.0859 15.6745 37.0703 15.4609H37.1406ZM57.4375 22.5703C57.625 22.013 57.7188 21.375 57.7188 20.6562C57.7188 19.7083 57.5469 18.901 57.2031 18.2344C56.8594 17.5677 56.3828 17.0599 55.7734 16.7109C55.1641 16.362 54.4609 16.1875 53.6641 16.1875C52.8151 16.1875 52.0833 16.362 51.4688 16.7109C50.8542 17.0599 50.3802 17.5677 50.0469 18.2344C49.7188 18.8958 49.5547 19.7031 49.5547 20.6562C49.5547 21.375 49.6536 22.013 49.8516 22.5703C50.0495 23.1276 50.3281 23.599 50.6875 23.9844C51.0521 24.3646 51.4818 24.6562 51.9766 24.8594C52.4714 25.0573 53.0156 25.1562 53.6094 25.1562C54.2448 25.1562 54.8151 25.0573 55.3203 24.8594C55.8255 24.6562 56.2578 24.3646 56.6172 23.9844C56.9766 23.599 57.25 23.1276 57.4375 22.5703ZM51.6719 22.2734C51.5208 21.8255 51.4453 21.2865 51.4453 20.6562C51.4453 19.7031 51.6198 18.9714 51.9688 18.4609C52.3177 17.9505 52.8724 17.6953 53.6328 17.6953C54.1484 17.6953 54.5677 17.8125 54.8906 18.0469C55.2135 18.276 55.4505 18.612 55.6016 19.0547C55.7526 19.4922 55.8281 20.026 55.8281 20.6562C55.8281 21.2865 55.7526 21.8255 55.6016 22.2734C55.4505 22.7214 55.2135 23.0651 54.8906 23.3047C54.5677 23.5391 54.151 23.6562 53.6406 23.6562C53.1302 23.6562 52.7135 23.5391 52.3906 23.3047C52.0677 23.0651 51.8281 22.7214 51.6719 22.2734ZM64.6875 16.2109C64.5156 16.1953 64.3568 16.1875 64.2109 16.1875C63.8151 16.1875 63.4505 16.2656 63.1172 16.4219C62.7891 16.5729 62.4974 16.776 62.2422 17.0312C61.987 17.2865 61.7734 17.5677 61.6016 17.875H61.5156L61.2656 16.3516H59.8281V25H61.6719V20.4766C61.6719 20.0495 61.737 19.6745 61.8672 19.3516C61.9974 19.0286 62.1771 18.7604 62.4062 18.5469C62.6354 18.3281 62.8984 18.1667 63.1953 18.0625C63.4922 17.9531 63.8047 17.8984 64.1328 17.8984C64.2578 17.8984 64.3984 17.9062 64.5547 17.9219C64.7161 17.9375 64.8516 17.9609 64.9609 17.9922L65.1328 16.2734C65.0078 16.2474 64.8594 16.2266 64.6875 16.2109ZM72.1641 16.6641C71.612 16.3464 70.9505 16.1875 70.1797 16.1875C69.388 16.1875 68.6953 16.3646 68.1016 16.7188C67.5078 17.0729 67.0469 17.5885 66.7188 18.2656C66.3906 18.9427 66.2266 19.7656 66.2266 20.7344C66.2266 21.7083 66.4062 22.5234 66.7656 23.1797C67.1302 23.8359 67.6328 24.3307 68.2734 24.6641C68.9193 24.9922 69.6667 25.1562 70.5156 25.1562C71.1406 25.1562 71.6771 25.1094 72.125 25.0156C72.5729 24.9219 73.013 24.7734 73.4453 24.5703V23.0781C72.9766 23.2865 72.5208 23.4453 72.0781 23.5547C71.6406 23.6589 71.1458 23.7109 70.5938 23.7109C69.8177 23.7109 69.2135 23.4844 68.7812 23.0312C68.3542 22.5781 68.1302 21.9323 68.1094 21.0938H73.8828V20.1094C73.8828 19.2969 73.7344 18.599 73.4375 18.0156C73.1406 17.4323 72.7161 16.9818 72.1641 16.6641ZM68.7734 18.1328C69.1328 17.7578 69.6016 17.5703 70.1797 17.5703C70.612 17.5703 70.9661 17.6641 71.2422 17.8516C71.5234 18.0391 71.7318 18.2995 71.8672 18.6328C72.0078 18.9661 72.0807 19.349 72.0859 19.7812H68.1484C68.2109 19.0573 68.4193 18.5078 68.7734 18.1328Z" fill="white"/>
</g>
<defs>
<filter id="filter0_d_473_115" x="0" y="0" width="109" height="45" filterUnits="userSpaceOnUse" color-interpolation-filters="sRGB">
<feFlood flood-opacity="0" result="BackgroundImageFix"/>
<feColorMatrix in="SourceAlpha" type="matrix" values="0 0 0 0 0 0 0 0 0 0 0 0 0 0 0 0 0 0 127 0" result="hardAlpha"/>
<feOffset dy="4"/>
<feGaussianBlur stdDeviation="2"/>
<feColorMatrix type="matrix" values="0 0 0 0 0 0 0 0 0 0 0 0 0 0 0 0 0 0 0.07 0"/>
<feBlend mode="normal" in2="BackgroundImageFix" result="effect1_dropShadow_473_115"/>
<feBlend mode="normal" in="SourceGraphic" in2="effect1_dropShadow_473_115" result="shape"/>
</filter>
</defs>
</svg>
