<svg version="1.2" xmlns="http://www.w3.org/2000/svg" viewBox="0 0 1190 1684" width="110" height="156"><style>tspan{white-space:pre}.a{fill:#d6df22}.b{fill:#065c5d}.c{fill:#0092a2}.d{font-size: 95px;fill: #0092a2;font-family: "Forte"}.e{font-size: 60px;fill: #0092a2;font-family: "Forte"}</style><path fill-rule="evenodd" class="a" d="m487.6 351.5l-64.9 95q-14.5 20.6-29 41.1c-7.9 11.1-13.5 23.1-17.2 36.2-3.1 10.7-3.4 21.9-5.6 32.7-2.3 11.4-5.9 22.5-9.5 33.5 0 0.2-12.2 38.3-12.2 38.3l-75.6 5.1c-64.3 1-98.5 34.2-98.5 34.2h-2.6c-10.3-20.6-16.5-43.2-24.5-64.8l-15.8-59.3c-10.6-42.3-16.9-84.9-30.6-126.4-5.3-16.2-8.7-35.8-8.7-52.8 0-0.3 0-97 0-97 0-21 17.3-21 17.3-21l53.1 3.6c0 0 23-0.5 23-0.5 20.9-0.5 41.6-0.6 62 4.8 19 5 37.2 13.1 56.6 16.6 8.2 1.5 16.6-0.8 24.6 0.7 14.1 2.7 14.5 23.3 16.1 34.6 1.5 10.1 3.2 16.5-1.7 25.8-3 5.7-8.2 10.7-10 16.6-0.5 1.6-5.8 21.1-2.6 20.9 2.2-0.1 3.9-1.8 5.4-3.5 4.5-4.9 10.8-8.9 15.9-13.1 11.3-9.2 22.7-18.2 35.2-25.8 20.5-12.4 42.4-22.6 65.1-30.6 82.2-29.1 34.7 55.1 34.7 55.1zm-303.2 83.5c-0.6 0.1-11.5-25.4-12.9-28.3-1.8-3.7-1.4-9.5 1.1-12.8 1.4-1.9 9.6-5.2 9.6-7.1v-13.8l0.5-44.4c0 0 1-28.1-20.9-26.6-22 1.6-15.8 35.8-15.8 35.8l10.7 47c2.1 7.9 4.9 15.8 8 23.4 2.6 6.3 10.7 28.2 19.7 26.8zm0 0q0 0 0 0z"/><path class="b" d="m197 731.1c0.7 0.5 1.3 1.3 1.7 2.3 1.2 3.7-1.5 10-2.3 13.8-1.7 8-2.9 16.9-6.4 24.6 0 0-9.9 21.1-9.9 21.1 0 0-31.3-16.4-28.8-27.2 1.6-6.9 9-13.5 14.4-18.8 5.3-5.2 19.2-24.1 31.3-15.8z"/><path class="c" d="m152.1 769.8c0.6-1.5-2.9-9-3.3-10.7-2.2-9.2-3-18.7-2.5-28.2 1.4-24.9 11.8-54 33.3-68.4 15.5-10.5 32.6-18.9 50.5-24 25.9-7.4 54.7-6.4 81.4-8.7 15.8-1.3 31.5-2.3 47.2-4 80.9-8.7 163-11.7 242.5-30 46.3-10.7 91.8-23.9 136.5-39.9 55.5-19.8 109.6-43.4 162.2-70 64.8-32.8 127.3-70.2 187.4-111.1q36.7-25 72.3-51.8l-46 53.6c0 0-73.5 78.4-73.5 78.4-33.6 35.8-67.4 74-107.4 102.8-25.4 18.3-50.8 36.4-76.1 54.7-145.8 105.3-324.8 87.8-494.1 95 0 0-87.9 3.7-87.9 3.7-47.4 5.8-100.9 7.1-122.5 58.6z"/><path class="a" d="m189.8 731.2c18.8-12.5 41.3-14.4 63.1-17.2 23.6-3.1 47.2-5.1 70.9-6 6.5-0.2 13.2-0.3 19 2.5 4.4 2.2 7.8 5.8 11.1 9.5 47.8 54.5 70.3 130.4 59.8 202.2-13.9 94.7-81.1 178.6-79.4 274.3 0.9 53.4 23.6 104.7 23.3 158.1-0.1 23.2-4.5 47.2 3.2 69.1 5.2 15.1 15.8 27.9 19.8 43.3 3.4 13.1 1.8 26.8 2.1 40.2 0.7 26.6 9.6 52.9 25.2 74.4 3.8 5.3 8.2 11.9 5.4 17.8-2.1 4.6-7.8 6.4-12.8 7.3-15.7 2.9-31.9 3-47.6 0.5-4.6-0.8-9.6-2-12.6-5.7-3.1-3.8-3.1-9.1-3.1-13.9 0.7-102.8-21.1-205.6-63.5-299.2-34.1 59.5-68.9 120.9-78.6 188.8-3.4 23.6-3.8 47.7-9.5 70.9-3.7 14.9-9.4 31.5-1.3 44.6 2.4 3.9 6.1 8.1 4.7 12.5-0.7 2-2.3 3.6-4 4.8-14.2 10.6-34.2 9.4-50.6 2.8-3.7-1.4-7.4-3.2-10.1-6.3-8.4-9.8-0.9-24.4 3.7-36.5 10.7-27.9 3.4-59.5 9.9-88.7 5-22 17.7-41.5 25.1-62.9 9.4-26.9 10.1-55.9 14.6-84 7-44.2 23.2-86.3 37.9-128.6 33.7-96.6 60.3-195.8 79.4-296.4q-32.4 107.4-64.9 214.7c-22.3-44.7-43.8-90.2-56.9-138.5-13.1-48.2-17.4-99.8-5.1-148.2 9.2-36.4 25.6-69.4 24.2-107.5 0-1.3 0-2 0-2"/><text style="transform:matrix(2,0,0,2,524.879,943.145)" ><tspan x="0" y="0" class="d">Weight
</tspan></text><text style="transform:matrix(2,0,0,2,461.683,1053.172)" ><tspan x="0" y="0" class="e">Loss Experts
</tspan></text></svg>